HIERARCHY
ROOT Hips
{
	OFFSET 0.00000 0.00000 0.00000
	CHANNELS 6 Xposition Yposition Zposition Zrotation Yrotation Xrotation 
	JOINT LHipJoint
	{
		OFFSET 0 0 0
		CHANNELS 3 Zrotation Yrotation Xrotation
		JOINT LeftHip
		{
			OFFSET 1.61024 -1.73873 0.75100
			CHANNELS 3 Zrotation Yrotation Xrotation
			JOINT LeftKnee
			{
				OFFSET 2.29819 -6.31424 0.00000
				CHANNELS 3 Zrotation Yrotation Xrotation
				JOINT LeftAnkle
				{
					OFFSET 2.76618 -7.60002 0.00000
					CHANNELS 3 Zrotation Yrotation Xrotation
					JOINT LeftToe
					{
						OFFSET 0.16838 -0.46263 2.02361
						CHANNELS 3 Zrotation Yrotation Xrotation
						End Site
						{
							OFFSET 0.00000 -0.00000 1.04662
						}
					}
				}
			}
		}
	}
	JOINT RHipJoint
	{
		OFFSET 0 0 0
		CHANNELS 3 Zrotation Yrotation Xrotation
		JOINT RightHip
		{
			OFFSET -1.46153 -1.73873 0.75100
			CHANNELS 3 Zrotation Yrotation Xrotation
			JOINT RightKnee
			{
				OFFSET -2.38373 -6.54924 0.00000
				CHANNELS 3 Zrotation Yrotation Xrotation
				JOINT RightAnkle
				{
					OFFSET -2.80314 -7.70157 0.00000
					CHANNELS 3 Zrotation Yrotation Xrotation
					JOINT RightToe
					{
						OFFSET -0.16142 -0.44349 2.02101
						CHANNELS 3 Zrotation Yrotation Xrotation
						End Site
						{
							OFFSET -0.00000 -0.00000 1.04381
						}
					}
				}
			}
		}
	}
	JOINT lowerback
	{
		OFFSET 0 0 0
		CHANNELS 3 Zrotation Yrotation Xrotation
		JOINT Chest
		{
			OFFSET -0.01629 1.66985 0.14750
			CHANNELS 3 Zrotation Yrotation Xrotation
			JOINT Chest2
			{
				OFFSET 0.02086 1.62378 0.20980
				CHANNELS 3 Zrotation Yrotation Xrotation
				JOINT lowerneck
				{
					OFFSET 0 0 0
					CHANNELS 3 Zrotation Yrotation Xrotation
					JOINT Neck
					{
						OFFSET -0.05690 1.78719 0.08702
						CHANNELS 3 Zrotation Yrotation Xrotation
						JOINT Head
						{
							OFFSET 0.16035 1.73871 -0.38470
							CHANNELS 3 Zrotation Yrotation Xrotation
							End Site
							{
								OFFSET 0.05645 1.80914 -0.14081
							}
						}
					}
				}
				JOINT LeftCollar
				{
					OFFSET 0 0 0
					CHANNELS 3 Zrotation Yrotation Xrotation
					JOINT LeftShoulder
					{
						OFFSET 2.83089 1.66494 -0.46008
CHANNELS 3 Zrotation Xrotation Yrotation
						JOINT LeftElbow
						{
OFFSET 0 -5.548930 -0.000000
CHANNELS 3 Zrotation Xrotation Yrotation
							JOINT LeftWrist
							{
OFFSET 0 -3.028980 -0.000000
CHANNELS 3 Zrotation Xrotation Yrotation
								JOINT lhand
								{
									OFFSET 0 0 0
CHANNELS 3 Zrotation Xrotation Yrotation
									JOINT LFingers
									{
OFFSET 0 -0.640950 -0.000000
CHANNELS 3 Zrotation Xrotation Yrotation
										End Site
										{
OFFSET 0 -0.516750 -0.000000
										}
									}
								}
								JOINT LThumb
								{
OFFSET 0 0.000000 0.000000
CHANNELS 3 Zrotation Xrotation Yrotation
									End Site
									{
OFFSET 0 -0.524640 0.524640
									}
								}
							}
						}
					}
				}
				JOINT RightCollar
				{
					OFFSET 0 0 0
					CHANNELS 3 Zrotation Yrotation Xrotation
					JOINT RightShoulder
					{
						OFFSET -2.84442 1.45761 -0.18088
CHANNELS 3 Zrotation Xrotation Yrotation
						JOINT RightElbow
						{
OFFSET 0 -5.351900 -0.000000
CHANNELS 3 Zrotation Xrotation Yrotation
							JOINT RightWrist
							{
OFFSET 0 -3.025310 -0.000000
CHANNELS 3 Zrotation Xrotation Yrotation
								JOINT rhand
								{
									OFFSET 0 0 0
CHANNELS 3 Zrotation Xrotation Yrotation
									JOINT RFingers
									{
OFFSET 0 -0.783890 -0.000000
CHANNELS 3 Zrotation Xrotation Yrotation
										End Site
										{
OFFSET 0 -0.631990 -0.000000
										}
									}
								}
								JOINT RThumb
								{
OFFSET 0 0.000000 0.000000
CHANNELS 3 Zrotation Xrotation Yrotation
									End Site
									{
OFFSET 0 -0.641640 0.641640
									}
								}
							}
						}
					}
				}
			}
		}
	}
}
MOTION
Frames: 10
Frame Time: 0.008333333333333333
0.809700 17.790800 -0.033200 -25.271500 83.749800 -5.401200 0.000000 0.000000 0.000000 -18.899300 -3.197900 -9.859800 0.062300 1.610100 4.429400 0.671700 5.781800 -18.652800 0.059500 1.573900 4.329500 0.000000 0.000000 0.000000 15.897600 19.804100 -10.989600 -0.344400 -3.770800 10.432800 0.314200 -15.894300 -19.078100 -0.900200 6.046600 -16.919700 -3.356000 -2.356500 -14.717100 1.650600 -2.080400 -10.963900 3.361300 -0.513600 -3.205400 -5.558300 -1.271100 -10.018200 13.297300 -3.376800 24.057000 5.286400 -0.437000 9.518800 -0.000000 0.000000 0.000000 2.112700 13.515200 6.355300 59.421300 -56.153700 33.860000 34.637700 -39.943500 -22.444300 0.000000 0.000000 0.000000 -7.125000 0.000000 0.000000 6.351000 56.526500 -1.799800 -0.000000 0.000000 0.000000 -10.080100 20.663400 3.692600 -140.264900 -47.912200 -101.757600 -38.147800 -77.392100 -2.325900 0.000000 0.000000 0.000000 7.125000 0.000000 -0.000000 -8.824400 26.996000 -3.900400
0.832853 17.786871 0.026933 -14.732577 78.166668 4.933125 0.000000 0.000000 0.000000 -18.323070 4.079364 -8.201095 0.000000 0.000000 0.000000 0.681008 4.186393 -17.666292 0.492594 4.499475 12.486351 0.000000 0.000000 0.000000 15.333520 20.710497 -12.492770 -0.446069 -4.285107 11.880223 -0.008265 -11.852582 -16.980157 -1.231192 7.036736 -19.824298 -2.051960 -2.335350 -15.171867 2.329556 -2.206687 -11.112562 3.320111 -0.639096 -3.134168 -4.143068 0.834497 -10.404353 10.581071 -0.156711 26.495407 4.513011 0.957536 10.110913 0.000000 0.000000 0.000000 2.744205 11.771813 4.796155 61.259017 -56.636238 35.390676 31.925360 -38.025447 -23.651359 0.000000 0.000000 0.000000 -7.125000 0.000000 0.000000 3.040172 57.248220 -0.912788 0.000000 0.000000 0.000000 -8.778217 20.118723 4.590221 -141.271130 -47.298458 -102.500743 -39.467557 -77.777360 -3.299354 0.000000 0.000000 0.000000 7.125000 0.000000 0.000000 -9.684590 25.694054 -4.590078
0.820490 17.779165 0.097214 -11.804778 75.831808 7.542764 0.000000 0.000000 0.000000 -18.936589 6.532020 -8.281668 0.000000 0.000000 0.000000 0.758075 3.168549 -17.892889 0.658892 5.191568 14.455701 0.000000 0.000000 0.000000 15.052501 20.898980 -13.568997 -0.573508 -4.849689 13.480380 -0.205979 -9.575651 -16.694983 -1.288578 7.191638 -20.284848 -1.304037 -2.369182 -15.330060 2.602234 -2.351639 -11.089452 3.163865 -0.755758 -3.032039 -3.388588 1.889093 -10.322315 9.358105 1.472728 27.895560 4.180219 1.673263 10.487472 0.000000 0.000000 0.000000 2.782935 10.288842 3.207192 62.804557 -57.012036 36.684333 32.083305 -37.664157 -22.721304 0.000000 0.000000 0.000000 -7.125000 0.000000 0.000000 3.400555 56.245416 -0.932867 0.000000 0.000000 0.000000 -6.631481 19.606142 3.623731 -141.254633 -47.308757 -102.488606 -40.349100 -77.900952 -4.059720 0.000000 0.000000 0.000000 7.125000 0.000000 0.000000 -10.223780 24.658340 -5.104016
0.782462 17.783135 0.166975 -11.415080 76.015334 7.698396 0.000000 0.000000 0.000000 -18.784157 6.419584 -8.123921 0.000000 0.000000 0.000000 0.731730 3.621949 -17.870904 0.526032 4.646542 12.903388 0.000000 0.000000 0.000000 15.296843 20.248887 -13.587596 -0.579638 -4.875154 13.552883 -0.266706 -8.824604 -16.641811 -1.341289 7.332630 -20.704675 -0.670644 -2.250721 -15.406073 2.483870 -2.290241 -10.831672 2.682703 -0.777548 -2.743297 -3.265208 1.951078 -10.562281 9.296942 1.547831 28.175441 4.166025 1.722355 10.636751 0.000000 0.000000 0.000000 1.877875 9.561088 2.504061 63.495988 -57.171741 37.264777 32.158884 -37.796652 -22.957788 0.000000 0.000000 0.000000 -7.125000 0.000000 0.000000 3.446526 56.528870 -0.974873 0.000000 0.000000 0.000000 -6.086393 19.972891 3.573388 -141.040348 -47.441327 -102.330945 -39.881282 -76.670574 -2.610974 0.000000 0.000000 0.000000 7.125000 0.000000 0.000000 -10.090183 26.549106 -4.582978
0.707552 17.798059 0.232071 -11.892104 77.321247 7.378864 0.000000 0.000000 0.000000 -18.292853 5.025544 -8.313704 0.000000 0.000000 0.000000 0.650911 4.416622 -17.482817 0.425098 4.183091 11.592527 0.000000 0.000000 0.000000 15.485680 20.191225 -13.457723 -0.533144 -4.678566 12.994164 -0.166015 -9.833945 -16.470073 -1.364612 7.393554 -20.886775 -0.396800 -1.966912 -15.179627 2.291256 -1.945487 -10.764762 2.373975 -0.623533 -2.822147 -3.572567 1.472189 -10.429855 9.438661 0.906468 27.745138 4.175856 1.404820 10.495684 0.000000 0.000000 0.000000 0.759661 10.659633 3.023548 63.857471 -57.253174 37.568674 30.060006 -40.519041 -24.975737 0.000000 0.000000 0.000000 -7.125000 0.000000 0.000000 0.570225 58.266702 -0.184284 0.000000 0.000000 0.000000 -7.250784 19.997442 4.451756 -141.316610 -47.270204 -102.534169 -40.348548 -78.119832 -3.775686 0.000000 0.000000 0.000000 7.125000 0.000000 0.000000 -10.266111 25.023817 -5.037231
0.630040 17.797433 0.288615 -13.511674 79.066258 5.221878 0.000000 0.000000 0.000000 -17.562039 3.443874 -7.695792 0.000000 0.000000 0.000000 0.564233 5.370096 -17.163101 0.299096 3.516147 9.719153 0.000000 0.000000 0.000000 16.140857 20.003854 -12.640771 -0.514629 -4.597931 12.765129 -0.070032 -11.234054 -16.961107 -1.311101 7.253077 -20.467219 -0.025473 -1.612908 -14.427399 1.909792 -1.567507 -10.243319 1.817560 -0.487587 -2.690230 -3.745966 0.807310 -11.001630 9.664891 -0.055489 27.227813 4.168683 0.966618 10.495604 0.000000 0.000000 0.000000 0.693440 12.171743 4.437288 63.986633 -57.281924 37.677379 33.149766 -41.009313 -24.192243 0.000000 0.000000 0.000000 -7.125000 0.000000 0.000000 4.344298 58.144674 -1.399004 0.000000 0.000000 0.000000 -7.917333 18.874825 5.283898 -141.470920 -47.173945 -102.647395 -39.729545 -76.736526 -3.081732 0.000000 0.000000 0.000000 7.125000 0.000000 0.000000 -9.909904 25.955436 -4.638608
0.497783 17.816095 0.332448 -16.183010 81.675860 2.782077 0.000000 0.000000 0.000000 -16.800760 0.631263 -7.973324 0.000000 0.000000 0.000000 0.419544 6.608935 -16.421661 0.116207 2.195365 6.045993 0.000000 0.000000 0.000000 16.399971 19.343240 -13.116360 -0.512322 -4.588009 12.737056 0.021941 -12.480101 -17.464698 -1.117795 6.716306 -18.877653 0.374450 -1.322133 -13.539650 1.304072 -1.228694 -10.161392 1.010357 -0.359123 -3.104184 -4.465580 -0.084392 -10.771066 10.773720 -1.393993 25.434086 4.460560 0.355599 9.914427 0.000000 0.000000 0.000000 1.418288 13.244178 5.246638 63.816780 -57.244102 37.534393 36.610377 -42.283643 -23.803327 0.000000 0.000000 0.000000 -7.125000 0.000000 0.000000 8.528801 58.566737 -2.841499 0.000000 0.000000 0.000000 -7.584910 18.356019 6.401398 -140.875959 -47.542322 -102.209718 -39.251142 -75.030945 -1.905804 0.000000 0.000000 0.000000 7.125000 0.000000 0.000000 -9.713074 27.478893 -4.191531
0.351546 17.837228 0.360099 -19.852666 84.385093 -0.817681 0.000000 0.000000 0.000000 -16.336570 -2.338655 -8.198767 0.000000 0.000000 0.000000 0.215605 8.318432 -15.401281 0.001143 0.181961 0.499940 0.000000 0.000000 0.000000 16.371328 19.086508 -13.270417 -0.495414 -4.512770 12.523925 0.191169 -14.247860 -17.925387 -0.966847 6.260271 -17.541456 -0.227688 -1.694603 -11.939609 1.406429 -1.664430 -10.257876 1.443472 -0.541124 -4.037049 -4.792258 -0.552439 -10.824239 11.363950 -2.028195 22.823020 4.545644 0.009347 9.071252 0.000000 0.000000 0.000000 1.363361 14.651505 1.827683 67.084463 -57.919360 40.293227 44.463067 -44.428463 -24.623990 0.000000 0.000000 0.000000 -7.125000 0.000000 0.000000 18.894846 61.701694 -7.840359 0.000000 0.000000 0.000000 -8.036412 18.863762 10.003840 -137.838558 -49.298836 -99.936895 -37.808292 -74.508655 -3.196722 0.000000 0.000000 0.000000 7.125000 0.000000 0.000000 -8.461786 25.922299 -3.952551
0.235318 17.849507 0.388237 -20.321484 85.416970 -1.535234 0.000000 0.000000 0.000000 -16.217740 -3.430849 -8.203465 0.000000 0.000000 0.000000 0.147253 8.689482 -14.837666 0.000659 -0.162767 -0.447312 0.000000 0.000000 0.000000 16.347757 18.625174 -13.731432 -0.534818 -4.685859 13.014783 0.226017 -14.711563 -18.223292 -0.859082 5.910559 -16.525064 -0.715401 -1.845167 -11.024206 1.467371 -1.837156 -10.286090 1.788368 -0.597381 -4.541418 -5.028352 -0.741362 -10.435599 11.855798 -2.190445 19.599435 4.615290 -0.156670 7.932472 0.000000 0.000000 0.000000 4.743566 15.257219 -18.925882 74.835664 -59.112308 46.906484 44.209101 -46.097665 -29.065979 0.000000 0.000000 0.000000 -7.125000 0.000000 0.000000 19.304857 66.819906 -10.305901 0.000000 0.000000 0.000000 -10.141463 19.790378 25.798828 -129.864794 -53.048374 -93.717496 -40.006503 -68.060914 -5.076336 0.000000 0.000000 0.000000 7.125000 0.000000 0.000000 -9.820933 23.382617 -5.191279
0.119494 17.856508 0.384698 -19.427380 84.944428 -1.287276 0.000000 0.000000 0.000000 -16.170234 -2.879049 -8.030888 0.000000 0.000000 0.000000 0.145122 8.441425 -14.512482 0.001567 0.217348 0.597271 0.000000 0.000000 0.000000 16.502112 18.617901 -13.616239 -0.550656 -4.753665 13.207310 0.223263 -14.456754 -17.839370 -0.851017 5.883554 -16.446989 -0.524228 -1.609178 -10.673945 1.540480 -1.556996 -10.110372 1.782394 -0.475285 -4.555666 -5.019203 -0.861369 -10.759592 11.658734 -2.202004 17.459506 4.478920 -0.249004 7.292886 0.000000 0.000000 0.000000 8.513388 8.713767 -49.508765 82.387599 -59.779690 53.412406 39.632717 -45.803758 -31.513222 0.000000 0.000000 0.000000 -7.125000 0.000000 0.000000 11.766120 68.162627 -6.579796 0.000000 0.000000 0.000000 -13.821569 12.373005 52.574530 -114.950312 -57.510650 -81.426802 -27.840779 -53.069532 -0.874821 0.000000 0.000000 0.000000 7.125000 0.000000 0.000000 -0.993164 28.989559 -0.387788
